<?xml version="1.0" standalone="no"?>
<!DOCTYPE svg PUBLIC "-//W3C//DTD SVG 20010904//EN"
 "http://www.w3.org/TR/2001/REC-SVG-20010904/DTD/svg10.dtd">
<svg version="1.0" xmlns="http://www.w3.org/2000/svg"
 width="460.000000pt" height="460.000000pt" viewBox="0 0 460.000000 460.000000"
 preserveAspectRatio="xMidYMid meet">
<metadata>
Created by potrace 1.11, written by Peter Selinger 2001-2013
</metadata>
<g transform="translate(0.000000,460.000000) scale(0.100000,-0.100000)"
fill="#000000" stroke="none">
<path d="M0 2300 l0 -2300 813 0 814 0 17 163 c21 193 70 444 90 464 7 8 336
26 343 20 3 -4 1 -26 -6 -49 -23 -90 -81 -309 -115 -440 -20 -75 -36 -141 -36
-147 0 -8 67 -11 210 -11 l210 0 0 124 0 124 60 7 60 7 0 194 0 194 99 0 c54
0 113 3 130 6 l32 7 -6 -149 c-3 -82 -8 -171 -11 -198 l-5 -48 46 6 c88 14
387 15 400 3 22 -23 86 -110 101 -138 13 -26 13 -30 -3 -46 -29 -29 -63 -75
-63 -84 0 -5 317 -9 710 -9 l710 0 0 2300 0 2300 -2300 0 -2300 0 0 -2300z
m2444 1700 c21 -10 47 -27 57 -36 20 -18 29 -20 139 -29 62 -5 67 -7 112 -55
45 -49 50 -60 77 -180 4 -19 17 -53 29 -76 26 -51 40 -133 50 -289 9 -141 8
-181 -8 -295 -16 -120 -30 -169 -49 -175 -9 -3 -27 -28 -40 -55 -14 -28 -29
-50 -33 -50 -4 0 -8 -9 -8 -20 0 -11 -7 -23 -15 -26 -8 -4 -15 -12 -15 -19 0
-16 -66 -70 -98 -80 -13 -3 -30 -22 -39 -41 -9 -19 -22 -34 -29 -34 -7 0 -22
-12 -33 -26 -15 -20 -21 -22 -21 -10 0 20 -9 20 -32 -1 -17 -15 -18 -15 -18 2
0 18 -1 18 -15 -1 -9 -12 -14 -14 -15 -6 0 10 -5 8 -17 -4 -17 -16 -18 -16
-21 -1 -4 22 -8 21 -34 -3 -26 -24 -53 -27 -44 -4 4 12 1 14 -14 9 -26 -8 -60
3 -60 20 0 14 -54 37 -64 27 -13 -12 -35 -10 -40 5 -4 8 -13 13 -21 9 -9 -3
-21 6 -31 24 -10 16 -26 31 -36 33 -10 3 -18 9 -17 14 3 17 -1 33 -8 32 -23
-4 -34 4 -48 32 -18 34 -17 38 11 43 11 2 24 5 29 6 28 6 45 -2 51 -26 5 -18
19 -31 51 -45 32 -14 43 -24 39 -34 -6 -16 -5 -16 34 -22 128 -17 215 -5 232
33 6 13 9 26 7 29 -3 2 -41 7 -86 11 -74 6 -82 9 -97 34 -9 16 -16 38 -16 49
0 19 6 21 63 22 34 1 52 4 40 6 -14 3 -23 12 -23 23 0 14 -13 21 -51 31 l-52
14 44 10 c24 7 47 8 50 3 3 -4 29 -7 58 -6 34 2 55 -2 60 -11 5 -7 19 -11 31
-9 16 2 24 -2 26 -14 1 -10 -2 -18 -7 -18 -5 0 -1 -8 9 -18 13 -13 29 -18 49
-15 19 3 34 -1 42 -11 36 -43 81 -3 81 70 0 38 -30 73 -62 74 -9 0 -20 5 -23
10 -3 6 -14 10 -23 10 -9 0 -30 7 -47 16 -16 9 -53 18 -81 21 -45 5 -52 3 -56
-15 -4 -15 -11 -19 -26 -16 -11 4 -21 0 -25 -9 -3 -9 -14 -13 -31 -10 -28 6
-25 27 9 55 18 16 18 17 2 18 -10 0 -27 16 -38 35 -12 19 -24 35 -28 35 -3 0
-12 9 -18 19 -9 15 -8 43 8 132 23 130 21 167 -16 214 -14 19 -25 38 -25 44 0
17 -73 61 -112 67 -23 4 -38 12 -38 20 0 8 -11 20 -25 26 -27 12 -33 27 -12
29 9 0 9 2 -1 6 -10 4 -10 8 -1 19 9 12 9 20 -2 40 -19 36 -14 68 22 141 34
69 46 79 110 89 23 4 54 13 68 21 14 7 33 13 42 13 8 0 24 6 34 14 10 7 27 11
37 8 13 -3 17 0 13 10 -4 9 2 14 16 15 12 1 27 7 32 12 16 16 38 13 81 -9z
m536 -500 c0 -5 -4 -10 -10 -10 -5 0 -10 5 -10 10 0 6 5 10 10 10 6 0 10 -4
10 -10z m-916 -44 c32 -14 56 -31 54 -37 -4 -13 -216 -15 -230 -1 -18 18 -3
45 32 58 43 16 71 12 144 -20z m920 -148 c-1 -148 -17 -270 -39 -301 -13 -19
-15 -6 -16 128 -3 271 -3 274 15 294 9 9 16 26 16 37 1 17 2 17 13 -3 8 -14
12 -67 11 -155z m-920 62 c32 -12 34 -30 4 -30 -12 0 -19 -2 -16 -5 3 -3 24
-3 47 1 28 4 41 12 41 22 0 12 3 13 11 5 15 -15 -12 -154 -52 -268 -17 -50
-28 -98 -25 -111 5 -17 1 -23 -18 -28 -32 -8 -76 -53 -98 -103 -10 -23 -23
-45 -28 -48 -10 -6 -11 -2 -14 55 -2 38 -24 100 -35 100 -3 0 -15 15 -25 34
-14 27 -17 51 -14 127 3 84 6 94 23 97 30 6 67 52 55 67 -12 15 28 45 59 45
11 0 28 11 37 25 19 29 15 28 48 15z m-126 -41 c-16 -10 -43 15 -33 31 5 8 12
6 26 -6 15 -13 16 -19 7 -25z m840 -780 c-8 -53 10 -119 41 -153 16 -17 50
-53 76 -81 74 -78 77 -101 27 -199 -30 -61 -110 -140 -205 -202 -93 -61 -154
-87 -289 -124 -180 -48 -330 -40 -480 24 -21 9 -38 19 -38 22 0 3 3 3 8 1 12
-8 27 16 29 48 5 71 42 107 73 70 7 -8 16 -15 21 -15 13 0 52 -41 45 -47 -6
-7 24 -32 38 -33 4 0 5 17 2 38 -11 59 -13 123 -5 128 5 2 6 11 3 19 -8 20 17
28 50 15 33 -12 81 9 91 40 3 11 11 20 16 20 6 0 7 5 4 10 -3 6 1 10 10 10 11
0 15 5 12 14 -6 16 13 26 48 26 13 0 27 5 30 10 4 6 10 8 14 6 4 -3 13 -1 21
5 12 7 10 9 -7 9 -12 0 -25 5 -28 10 -3 6 -2 10 3 10 6 0 13 11 16 25 4 15 20
31 42 41 20 9 38 24 41 31 4 11 8 11 13 3 5 -8 10 -2 14 14 4 15 11 24 16 21
5 -3 11 -1 15 5 4 6 11 8 16 4 5 -3 8 -2 7 3 -2 4 1 9 6 10 5 0 13 8 18 17 5
9 13 14 19 11 5 -4 9 0 9 8 0 14 82 97 97 97 4 1 19 14 33 30 30 38 33 37 28
-1z m-1032 -545 c-5 -14 -4 -15 9 -4 10 8 15 9 15 1 0 -6 8 -11 18 -11 17 -1
63 -30 46 -30 -5 0 2 -6 15 -13 26 -13 48 -66 28 -68 -7 0 -3 -4 8 -9 11 -5
14 -9 7 -9 -7 -1 -10 -6 -6 -12 4 -7 -7 -4 -24 6 -17 10 -28 23 -25 28 3 6 1
7 -5 3 -25 -15 -113 98 -97 124 10 16 18 11 11 -6z m1002 -717 c18 -22 26 -68
12 -77 -7 -4 -60 -8 -119 -9 -58 -1 -113 -3 -121 -4 -32 -4 -27 33 10 72 29
30 32 31 119 31 59 0 92 -4 99 -13z m326 -9 c9 -12 16 -35 16 -50 l0 -27 -151
4 c-83 2 -154 7 -157 10 -3 2 3 23 13 45 l18 40 123 0 c116 0 124 -1 138 -22z
m161 10 c2 -2 -1 -23 -7 -46 l-10 -42 -53 0 -53 0 9 38 c18 67 16 65 65 59 25
-2 47 -6 49 -9z m-759 -42 c-15 -26 -23 -52 -20 -63 5 -15 4 -15 -5 -3 -5 8
-12 12 -14 10 -19 -21 -68 -138 -82 -196 l-17 -71 -45 -7 c-26 -3 -49 -4 -52
-1 -2 3 2 34 9 68 8 34 15 89 15 122 l0 59 40 1 c97 3 115 6 115 15 0 6 -35
10 -85 10 l-84 0 -7 38 -8 37 -8 -42 -9 -43 -50 0 c-52 0 -54 2 -43 57 l6 30
105 7 c75 5 108 4 113 -4 5 -8 11 -6 20 5 9 10 30 15 72 15 l60 0 -26 -44z
m897 38 c44 -8 46 -18 8 -62 -27 -31 -32 -33 -85 -31 -31 1 -56 6 -56 11 0 18
64 88 79 88 9 0 33 -3 54 -6z m-1358 -41 c-3 -10 -9 -30 -12 -44 -4 -23 -12
-27 -50 -33 -57 -8 -64 -3 -52 37 6 17 12 38 15 45 2 7 22 12 55 12 45 0 50
-2 44 -17z m-155 -25 c0 -47 -8 -54 -70 -61 -30 -4 -79 -16 -108 -27 -69 -26
-76 -26 -67 8 12 52 33 72 73 73 20 0 60 9 87 19 74 27 85 26 85 -12z m-260
-50 c0 -18 -4 -38 -8 -44 -4 -7 -45 -17 -92 -23 -47 -5 -107 -13 -134 -17
l-49 -7 7 29 c17 69 76 91 130 49 l35 -26 3 28 c3 28 12 32 96 42 7 0 12 -11
12 -31z m1300 21 c0 -7 28 -9 85 -7 103 6 114 1 89 -41 -10 -17 -22 -31 -27
-31 -4 0 -5 -15 -2 -32 3 -18 -1 -55 -8 -83 -13 -50 -13 -50 -61 -56 -26 -3
-49 -2 -52 3 -3 4 2 31 11 60 22 75 21 78 -24 78 l-40 0 -15 -57 c-24 -85 -27
-89 -77 -84 -24 1 -46 5 -48 7 -2 2 11 57 29 123 l33 120 46 4 c25 2 49 4 54
5 4 1 7 -3 7 -9z m-317 -25 c0 -5 -6 -36 -12 -68 -15 -80 -15 -78 21 -74 34 3
38 11 63 131 5 25 9 27 55 27 28 0 50 -2 50 -5 0 -17 -41 -148 -55 -176 -29
-57 -51 -69 -131 -69 -62 0 -73 3 -94 25 -21 22 -22 30 -15 92 4 37 8 82 9 98
1 30 2 30 56 29 30 -1 54 -5 53 -10z m695 10 l61 -7 -26 -33 c-21 -29 -24 -38
-15 -61 6 -16 20 -53 31 -83 12 -30 21 -56 21 -57 0 -2 -24 -3 -53 -3 l-53 0
-24 67 c-26 73 -25 74 -50 -24 -10 -40 -13 -43 -45 -43 -74 0 -76 7 -40 144
14 52 25 97 25 100 0 8 91 8 168 0z m-1069 -26 c0 -7 -10 -62 -23 -123 l-22
-110 -49 -5 c-45 -5 -53 -2 -81 23 l-31 28 -38 -36 c-33 -30 -46 -35 -87 -35
-26 0 -48 2 -48 4 0 3 11 56 25 120 14 64 25 118 25 121 0 3 25 5 56 5 l57 0
-6 -30 c-7 -34 2 -39 21 -10 15 25 34 25 57 0 22 -24 31 -19 38 19 6 27 11 30
49 34 24 2 46 4 51 5 4 1 7 -4 6 -10z m-369 -20 c0 -2 -6 -23 -14 -48 -10 -36
-18 -46 -37 -48 -96 -10 -109 -14 -109 -30 0 -15 9 -16 61 -14 l62 4 -7 -43
c-4 -23 -9 -46 -12 -51 -3 -4 -29 -8 -57 -8 -29 0 -81 -5 -117 -10 -35 -5 -66
-8 -67 -6 -8 8 20 105 45 158 28 58 57 78 132 91 28 5 120 8 120 5z m-260 -65
c0 -9 -16 -47 -35 -84 -19 -38 -35 -79 -35 -93 0 -24 -4 -26 -41 -26 -34 0
-40 3 -35 16 4 9 11 36 17 61 11 40 10 46 -12 69 -28 30 -34 23 -49 -65 -20
-120 -15 -111 -65 -111 -52 0 -52 2 -31 89 8 31 17 72 20 92 6 34 10 38 59 52
28 8 87 16 130 16 66 1 77 -1 77 -16z"/>
<path d="M2660 3611 c0 -5 6 -12 13 -15 6 -3 3 -5 -8 -4 -20 1 -62 -9 -160
-40 -27 -9 -55 -15 -61 -14 -6 1 -17 -5 -24 -13 -9 -11 -9 -15 -1 -15 8 0 10
-8 6 -20 -7 -23 16 -27 62 -9 85 32 129 37 201 24 39 -8 80 -19 91 -24 17 -9
18 -8 13 12 -3 12 -10 25 -16 30 -8 5 -6 10 4 18 13 9 13 10 -2 5 -11 -3 -26
5 -41 23 -32 39 -77 63 -77 42z"/>
<path d="M2469 3407 c-21 -10 -24 -16 -18 -37 4 -14 7 -21 8 -17 1 4 10 3 20
-3 13 -7 22 -7 26 0 3 5 -1 10 -9 10 -26 0 -18 17 10 24 19 5 33 1 48 -13 30
-28 62 -26 82 4 13 20 19 23 36 14 19 -10 19 -11 2 -24 -15 -11 -10 -12 36
-10 56 3 71 15 50 40 -15 18 -44 20 -35 3 4 -7 0 -5 -8 5 -12 14 -31 17 -118
17 -59 -1 -115 -6 -130 -13z"/>
<path d="M2382 3059 c-33 -12 -27 -19 18 -19 22 0 40 4 40 9 0 13 -33 19 -58
10z"/>
<path d="M2610 2973 c0 -5 9 -18 20 -28 11 -10 20 -14 20 -8 0 5 -9 18 -20 28
-11 10 -20 14 -20 8z"/>
<path d="M2470 2290 c0 -5 5 -10 10 -10 6 0 10 5 10 10 0 6 -4 10 -10 10 -5 0
-10 -4 -10 -10z"/>
</g>
</svg>
